Widespread Panic
1998-03-25
Chesterfield Café
Paris, France


Source: FM SBD > DAT
Transfer: DAT > Tascam CDRW 700 > EAC > SHN > FLAC (8)
Thanks to Mr. Phil & Steve Bohannon. Converted by Steve Bohannon & Jonathan Fox


One Set:
Disc 1:

01. Radio Child >
02. Pleas,
03. Holden Oversoul,
04. Sleepy Monkey,
05. Ain't Life Grand,
06. Driving Song >
07. Arleen >
08. Driving Song >
09. Greta
10. Announcer

Disc 2:

01. Papa's Home >
02. Drums >
03. Pilgrims >
04. One Kind Favor >
05. Chilly Water

Encore:

06. Fishwater


['Third Stone From The Sun' jam before 'Driving Song'] 



shntool info:

    length     expanded size    cdr  WAVE problems  fmt   ratio  filename
     6:01.06       63694556 B   ---   --   ---xx   flac  0.5135  wsp1998-03-25d101.flac
     6:19.05       66867404 B   ---   --   ---xx   flac  0.4921  wsp1998-03-25d102.flac
     9:22.45       99242684 B   ---   --   ---xx   flac  0.5267  wsp1998-03-25d103.flac
    10:22.39      109812572 B   ---   --   ---xx   flac  0.4986  wsp1998-03-25d104.flac
     6:45.52       71564348 B   ---   --   ---xx   flac  0.5052  wsp1998-03-25d105.flac
     4:24.60       46710764 B   ---   --   ---xx   flac  0.5049  wsp1998-03-25d106.flac
    17:52.39      189192572 B   ---   --   ---xx   flac  0.5173  wsp1998-03-25d107.flac
     3:39.25       38690444 B   ---   --   ---xx   flac  0.4973  wsp1998-03-25d108.flac
     9:58.16      105524876 B   ---   --   ---xx   flac  0.5237  wsp1998-03-25d109.flac
     0:14.39        2561372 B   ---   --   ---xx   flac  0.4449  wsp1998-03-25d110.flac
    14:22.06      152070956 B   ---   --   ---xx   flac  0.3239  wsp1998-03-25d201.flac
     9:45.05      103205804 B   ---   --   ---xx   flac  0.3151  wsp1998-03-25d202.flac
     8:10.48       86548940 B   ---   --   ---xx   flac  0.3236  wsp1998-03-25d203.flac
     9:39.67      102293228 B   ---   --   ---xx   flac  0.3313  wsp1998-03-25d204.flac
    14:39.35      155137964 B   ---   --   ---xx   flac  0.3388  wsp1998-03-25d205.flac
    11:12.12      118569068 B   ---   --   ---xx   flac  0.3388  wsp1998-03-25d206.flac
   142:49.49     1511687552 B                            0.4249  (16 files)


FLAC Fingerprint:

wsp1998-03-25d101.flac:efc5b14c751cfee1d1851b1eaa082c20
wsp1998-03-25d102.flac:bfc8e9245e8b0e38b1fc2dc0456657df
wsp1998-03-25d103.flac:67f83bea4f67bed79c04a2dc31184efc
wsp1998-03-25d104.flac:a4aa6b9496bdb6bd01cb58fbe609d7c4
wsp1998-03-25d105.flac:2db5a266cd7517417ec4df00252cd2dd
wsp1998-03-25d106.flac:a53c0bb04f37d657d1de479fb6901b31
wsp1998-03-25d107.flac:fd58335ff59c03996b9dcbf07b375051
wsp1998-03-25d108.flac:380dbfaba48aca53764eba5e215b7a13
wsp1998-03-25d109.flac:64d09ff993984fd0e42f241faaa5a5ca
wsp1998-03-25d110.flac:73bce792558e6d8262c1ec1ea2dcf47f
wsp1998-03-25d201.flac:b801954e9092af027176b72cc3f115f9
wsp1998-03-25d202.flac:391c365851e88214ebfb6c493ff58bc0
wsp1998-03-25d203.flac:fabd85e3031fa5d51c33512137a61fab
wsp1998-03-25d204.flac:72efd33ab41a478fbf900ed0ce5a28cd
wsp1998-03-25d205.flac:8b0da7c8e2a9d26dd935a0935fc42ab5
wsp1998-03-25d206.flac:779e87dd814de77bd8fef5fe04b0973e